<svg xmlns="http://www.w3.org/2000/svg" viewBox="2.08 0.00 537 85" width="537" height="85">
  
  <path d="M52.92 5.40L52.92 5.40Q52.92 6.91 53.65 7.97Q54.39 9.04 55.56 9.83Q56.73 10.62 58.03 11.38L58.03 11.38Q59.36 12.13 60.58 12.98Q61.81 13.82 62.62 14.99Q63.43 16.16 63.43 17.89L63.43 17.89Q63.43 19.55 62.62 20.93Q61.81 22.32 60.19 23.15Q58.57 23.98 56.12 23.98L56.12 23.98Q55.33 23.98 54.55 23.87Q53.78 23.76 52.97 23.49Q52.16 23.22 51.22 22.75L51.22 22.75Q51.04 22.64 50.99 22.48Q50.94 22.32 50.90 22.07L50.90 22.07L50.36 17.39Q50.36 17.32 50.36 17.24L50.36 17.24Q50.43 17.21 50.54 17.17L50.54 17.17Q50.72 17.17 50.76 17.32L50.76 17.32Q50.90 18.40 51.33 19.48Q51.76 20.56 52.50 21.46Q53.24 22.36 54.34 22.91Q55.44 23.47 56.91 23.47L56.91 23.47Q58.03 23.47 59.07 23.06Q60.12 22.64 60.78 21.71Q61.45 20.77 61.45 19.15L61.45 19.15Q61.45 17.39 60.67 16.22Q59.90 15.05 58.71 14.20Q57.52 13.36 56.19 12.60L56.19 12.60Q54.93 11.84 53.74 11.02Q52.56 10.19 51.82 9.05Q51.08 7.92 51.08 6.23L51.08 6.23Q51.08 4.36 52.02 3.11Q52.95 1.87 54.45 1.26Q55.94 0.65 57.56 0.65L57.56 0.65Q58.50 0.65 59.52 0.85Q60.55 1.04 61.66 1.51L61.66 1.51Q61.95 1.62 62.08 1.78Q62.20 1.94 62.20 2.12L62.20 2.12L62.53 5.94Q62.53 6.08 62.33 6.08Q62.13 6.08 62.10 5.94L62.10 5.94Q62.02 5.15 61.72 4.30Q61.41 3.46 60.82 2.74Q60.22 2.02 59.31 1.57Q58.39 1.12 57.09 1.12L57.09 1.12Q55.54 1.12 54.63 1.76Q53.71 2.41 53.31 3.38Q52.92 4.36 52.92 5.40ZM82.89 1.66L82.89 1.66Q80.62 1.66 79.59 2.74Q78.57 3.82 78.17 6.59L78.17 6.59Q78.17 6.66 77.96 6.66Q77.74 6.66 77.74 6.59L77.74 6.59Q77.81 6.16 77.90 5.33Q77.99 4.50 78.06 3.55Q78.14 2.59 78.19 1.71Q78.24 0.83 78.24 0.25L78.24 0.25Q78.24 0.07 78.46 0.07Q78.68 0.07 78.68 0.25L78.68 0.25Q78.68 0.61 79.02 0.77Q79.36 0.94 79.81 0.99Q80.26 1.04 80.58 1.04L80.58 1.04Q83.68 1.15 87.82 1.15L87.82 1.15Q90.38 1.15 91.87 1.10Q93.36 1.04 94.77 1.04L94.77 1.04Q95.96 1.04 96.62 0.88Q97.29 0.72 97.47 0.14L97.47 0.14Q97.50 0.00 97.68 0.00Q97.86 0.00 97.86 0.14L97.86 0.14Q97.83 0.68 97.76 1.58Q97.68 2.48 97.65 3.47Q97.61 4.46 97.58 5.31Q97.54 6.16 97.54 6.59L97.54 6.59Q97.54 6.66 97.32 6.66Q97.11 6.66 97.11 6.59L97.11 6.59Q97.11 3.82 96.17 2.74Q95.24 1.66 92.75 1.66L92.75 1.66Q91.06 1.66 90.21 1.78Q89.37 1.91 89.10 2.39Q88.83 2.88 88.83 4.03L88.83 4.03L88.83 20.63Q88.83 21.67 89.08 22.21Q89.33 22.75 90.11 22.93Q90.88 23.11 92.46 23.11L92.46 23.11Q92.54 23.11 92.54 23.33Q92.54 23.54 92.46 23.54L92.46 23.54Q91.53 23.54 90.36 23.51Q89.19 23.47 87.82 23.47L87.82 23.47Q86.52 23.47 85.35 23.51Q84.18 23.54 83.21 23.54L83.21 23.54Q83.14 23.54 83.14 23.33Q83.14 23.11 83.21 23.11L83.21 23.11Q84.76 23.11 85.55 22.93Q86.34 22.75 86.61 22.21Q86.88 21.67 86.88 20.63L86.88 20.63L86.88 3.96Q86.88 2.81 86.60 2.32Q86.31 1.84 85.44 1.75Q84.58 1.66 82.89 1.66ZM130.75 15.16L130.75 4.82Q130.75 3.10 130.01 2.29Q129.28 1.48 127.69 1.48L127.69 1.48Q127.58 1.48 127.58 1.26Q127.58 1.04 127.69 1.04L127.69 1.04Q128.48 1.04 129.33 1.10Q130.18 1.15 131.18 1.15L131.18 1.15Q132.01 1.15 132.86 1.10Q133.70 1.04 134.39 1.04L134.39 1.04Q134.46 1.04 134.46 1.26Q134.46 1.48 134.39 1.48L134.39 1.48Q132.95 1.48 132.25 2.29Q131.54 3.10 131.54 4.82L131.54 4.82L131.54 15.12Q131.54 17.96 130.50 19.94Q129.46 21.92 127.57 22.97Q125.68 24.01 123.16 24.01L123.16 24.01Q120.49 24.01 118.51 22.95Q116.53 21.89 115.45 19.96Q114.37 18.04 114.37 15.44L114.37 15.44L114.37 3.96Q114.37 2.92 114.14 2.39Q113.90 1.87 113.22 1.67Q112.54 1.48 111.17 1.48L111.17 1.48Q111.10 1.48 111.10 1.26Q111.10 1.04 111.17 1.04L111.17 1.04Q112.03 1.04 113.08 1.10Q114.12 1.15 115.31 1.15L115.31 1.15Q116.53 1.15 117.59 1.10Q118.66 1.04 119.45 1.04L119.45 1.04Q119.56 1.04 119.56 1.26Q119.56 1.48 119.45 1.48L119.45 1.48Q118.08 1.48 117.40 1.69Q116.71 1.91 116.50 2.45Q116.28 2.99 116.28 4.03L116.28 4.03L116.28 14.18Q116.28 18.43 118.26 20.70Q120.24 22.97 123.80 22.97L123.80 22.97Q127.12 22.97 128.93 20.88Q130.75 18.79 130.75 15.16L130.75 15.16ZM156.94 23.69L156.94 23.69Q155.94 23.69 154.46 23.58Q152.98 23.47 151.72 23.47L151.72 23.47Q150.57 23.47 149.49 23.51Q148.41 23.54 147.55 23.54L147.55 23.54Q147.48 23.54 147.48 23.33Q147.48 23.11 147.55 23.11L147.55 23.11Q148.92 23.11 149.62 22.93Q150.32 22.75 150.55 22.21Q150.79 21.67 150.79 20.63L150.79 20.63L150.79 3.96Q150.79 2.92 150.55 2.39Q150.32 1.87 149.64 1.67Q148.95 1.48 147.58 1.48L147.58 1.48Q147.51 1.48 147.51 1.26Q147.51 1.04 147.58 1.04L147.58 1.04Q148.45 1.04 149.51 1.10Q150.57 1.15 151.72 1.15L151.72 1.15Q152.88 1.15 154.19 1.06Q155.50 0.97 156.44 0.97L156.44 0.97Q160.29 0.97 163.17 2.41Q166.05 3.85 167.65 6.34Q169.26 8.82 169.26 11.92L169.26 11.92Q169.26 14.62 168.28 16.79Q167.31 18.97 165.60 20.50Q163.89 22.03 161.66 22.86Q159.43 23.69 156.94 23.69ZM156.58 23.22L156.58 23.22Q159.61 23.22 161.93 22.01Q164.25 20.81 165.58 18.45Q166.92 16.09 166.92 12.71L166.92 12.71Q166.92 9.54 165.67 7.00Q164.43 4.46 162.16 2.95Q159.90 1.44 156.76 1.44L156.76 1.44Q154.57 1.44 153.63 1.89Q152.70 2.34 152.70 4.03L152.70 4.03L152.70 20.23Q152.70 21.78 153.43 22.50Q154.17 23.22 156.58 23.22ZM198.47 23.54L198.47 23.54L183.60 23.54Q183.53 23.54 183.53 23.33Q183.53 23.11 183.60 23.11L183.60 23.11Q184.97 23.11 185.66 22.93Q186.34 22.75 186.57 22.21Q186.81 21.67 186.81 20.63L186.81 20.63L186.81 3.96Q186.81 2.92 186.57 2.39Q186.34 1.87 185.66 1.67Q184.97 1.48 183.60 1.48L183.60 1.48Q183.53 1.48 183.53 1.26Q183.53 1.04 183.60 1.04L183.60 1.04L197.86 1.04Q198.18 1.04 198.18 1.37L198.18 1.37L198.26 5.72Q198.26 5.83 198.06 5.83Q197.86 5.83 197.86 5.72L197.86 5.72Q197.86 3.85 196.89 2.79Q195.92 1.73 194.33 1.73L194.33 1.73L191.85 1.73Q190.52 1.73 189.85 1.91Q189.18 2.09 188.95 2.61Q188.72 3.13 188.72 4.18L188.72 4.18L188.72 11.48L193.47 11.48Q195.12 11.48 195.77 10.93Q196.42 10.37 196.42 9.00L196.42 9.00Q196.42 8.93 196.64 8.93Q196.85 8.93 196.85 9.00L196.85 9.00Q196.85 10.04 196.83 10.62Q196.82 11.20 196.82 11.84L196.82 11.84Q196.82 12.64 196.85 13.41Q196.89 14.18 196.89 15.08L196.89 15.08Q196.89 15.16 196.67 15.16Q196.46 15.16 196.46 15.08L196.46 15.08Q196.46 13.46 195.77 12.82Q195.09 12.17 193.36 12.17L193.36 12.17L188.72 12.17L188.72 20.48Q188.72 21.49 188.95 22.00Q189.18 22.50 189.85 22.68Q190.52 22.86 191.85 22.86L191.85 22.86L195.16 22.86Q196.60 22.86 197.64 21.60Q198.69 20.34 198.94 18.29L198.94 18.29Q198.94 18.25 198.94 18.25L198.94 18.25Q198.98 18.18 199.16 18.18L199.16 18.18Q199.37 18.22 199.37 18.32L199.37 18.32Q199.23 19.26 199.14 20.57Q199.05 21.89 199.05 23.00L199.05 23.00Q199.05 23.54 198.47 23.54ZM216.46 19.80L216.46 19.80L216.46 2.56Q216.06 2.20 215.70 1.98L215.70 1.98Q214.73 1.48 213.86 1.48L213.86 1.48Q213.76 1.48 213.76 1.26Q213.76 1.04 213.86 1.04L213.86 1.04Q214.48 1.04 215.12 1.08Q215.77 1.12 216.28 1.12Q216.78 1.12 217.23 1.08Q217.68 1.04 217.90 1.04L217.90 1.04Q218.36 1.04 218.54 1.46Q218.72 1.87 219.55 2.92L219.55 2.92L233.77 20.59L233.77 4.82Q233.77 2.99 233.20 2.23Q232.62 1.48 231.11 1.48L231.11 1.48Q231.04 1.48 231.04 1.26Q231.04 1.04 231.11 1.04L231.11 1.04Q231.83 1.04 232.57 1.10Q233.30 1.15 234.20 1.15L234.20 1.15Q235.03 1.15 235.86 1.10Q236.69 1.04 237.37 1.04L237.37 1.04Q237.48 1.04 237.48 1.26Q237.48 1.48 237.37 1.48L237.37 1.48Q235.82 1.48 235.19 2.23Q234.56 2.99 234.56 4.82L234.56 4.82L234.56 23.94Q234.56 24.01 234.38 24.03Q234.20 24.05 234.13 24.01L234.13 24.01L217.86 4.00Q217.54 3.60 217.25 3.31L217.25 3.31L217.25 19.80Q217.25 21.64 217.86 22.37Q218.47 23.11 219.98 23.11L219.98 23.11Q220.09 23.11 220.09 23.33Q220.09 23.54 219.98 23.54L219.98 23.54Q219.30 23.54 218.56 23.51Q217.82 23.47 216.92 23.47L216.92 23.47Q216.06 23.47 215.27 23.51Q214.48 23.54 213.76 23.54L213.76 23.54Q213.68 23.54 213.68 23.33Q213.68 23.11 213.76 23.11L213.76 23.11Q215.34 23.11 215.90 22.37Q216.46 21.64 216.46 19.80ZM255.79 1.66L255.79 1.66Q253.52 1.66 252.49 2.74Q251.47 3.82 251.07 6.59L251.07 6.59Q251.07 6.66 250.86 6.66Q250.64 6.66 250.64 6.59L250.64 6.59Q250.71 6.16 250.80 5.33Q250.89 4.50 250.96 3.55Q251.04 2.59 251.09 1.71Q251.14 0.83 251.14 0.25L251.14 0.25Q251.14 0.07 251.36 0.07Q251.58 0.07 251.58 0.25L251.58 0.25Q251.58 0.61 251.92 0.77Q252.26 0.94 252.71 0.99Q253.16 1.04 253.48 1.04L253.48 1.04Q256.58 1.15 260.72 1.15L260.72 1.15Q263.28 1.15 264.77 1.10Q266.26 1.04 267.67 1.04L267.67 1.04Q268.86 1.04 269.52 0.88Q270.19 0.72 270.37 0.14L270.37 0.14Q270.40 0.00 270.58 0.00Q270.76 0.00 270.76 0.14L270.76 0.14Q270.73 0.68 270.66 1.58Q270.58 2.48 270.55 3.47Q270.51 4.46 270.48 5.31Q270.44 6.16 270.44 6.59L270.44 6.59Q270.44 6.66 270.22 6.66Q270.01 6.66 270.01 6.59L270.01 6.59Q270.01 3.82 269.07 2.74Q268.14 1.66 265.65 1.66L265.65 1.66Q263.96 1.66 263.11 1.78Q262.27 1.91 262.00 2.39Q261.73 2.88 261.73 4.03L261.73 4.03L261.73 20.63Q261.73 21.67 261.98 22.21Q262.23 22.75 263.01 22.93Q263.78 23.11 265.36 23.11L265.36 23.11Q265.44 23.11 265.44 23.33Q265.44 23.54 265.36 23.54L265.36 23.54Q264.43 23.54 263.26 23.51Q262.09 23.47 260.72 23.47L260.72 23.47Q259.42 23.47 258.25 23.51Q257.08 23.54 256.11 23.54L256.11 23.54Q256.04 23.54 256.04 23.33Q256.04 23.11 256.11 23.11L256.11 23.11Q257.66 23.11 258.45 22.93Q259.24 22.75 259.51 22.21Q259.78 21.67 259.78 20.63L259.78 20.63L259.78 3.96Q259.78 2.81 259.50 2.32Q259.21 1.84 258.34 1.75Q257.48 1.66 255.79 1.66ZM299.51 23.54L299.51 23.54L284.64 23.54Q284.57 23.54 284.57 23.33Q284.57 23.11 284.64 23.11L284.64 23.11Q286.01 23.11 286.70 22.93Q287.38 22.75 287.61 22.21Q287.85 21.67 287.85 20.63L287.85 20.63L287.85 3.96Q287.85 2.92 287.61 2.39Q287.38 1.87 286.70 1.67Q286.01 1.48 284.64 1.48L284.64 1.48Q284.57 1.48 284.57 1.26Q284.57 1.04 284.64 1.04L284.64 1.04L298.90 1.04Q299.22 1.04 299.22 1.37L299.22 1.37L299.30 5.72Q299.30 5.83 299.10 5.83Q298.90 5.83 298.90 5.72L298.90 5.72Q298.90 3.85 297.93 2.79Q296.96 1.73 295.37 1.73L295.37 1.73L292.89 1.73Q291.56 1.73 290.89 1.91Q290.22 2.09 289.99 2.61Q289.76 3.13 289.76 4.18L289.76 4.18L289.76 11.48L294.51 11.48Q296.16 11.48 296.81 10.93Q297.46 10.37 297.46 9.00L297.46 9.00Q297.46 8.93 297.68 8.93Q297.89 8.93 297.89 9.00L297.89 9.00Q297.89 10.04 297.87 10.62Q297.86 11.20 297.86 11.84L297.86 11.84Q297.86 12.64 297.89 13.41Q297.93 14.18 297.93 15.08L297.93 15.08Q297.93 15.16 297.71 15.16Q297.50 15.16 297.50 15.08L297.50 15.08Q297.50 13.46 296.81 12.82Q296.13 12.17 294.40 12.17L294.40 12.17L289.76 12.17L289.76 20.48Q289.76 21.49 289.99 22.00Q290.22 22.50 290.89 22.68Q291.56 22.86 292.89 22.86L292.89 22.86L296.20 22.86Q297.64 22.86 298.68 21.60Q299.73 20.34 299.98 18.29L299.98 18.29Q299.98 18.25 299.98 18.25L299.98 18.25Q300.02 18.18 300.20 18.18L300.20 18.18Q300.41 18.22 300.41 18.32L300.41 18.32Q300.27 19.26 300.18 20.57Q300.09 21.89 300.09 23.00L300.09 23.00Q300.09 23.54 299.51 23.54ZM317.50 19.80L317.50 19.80L317.50 2.56Q317.10 2.20 316.74 1.98L316.74 1.98Q315.77 1.48 314.90 1.48L314.90 1.48Q314.80 1.48 314.80 1.26Q314.80 1.04 314.90 1.04L314.90 1.04Q315.52 1.04 316.16 1.08Q316.81 1.12 317.32 1.12Q317.82 1.12 318.27 1.08Q318.72 1.04 318.94 1.04L318.94 1.04Q319.40 1.04 319.58 1.46Q319.76 1.87 320.59 2.92L320.59 2.92L334.81 20.59L334.81 4.82Q334.81 2.99 334.24 2.23Q333.66 1.48 332.15 1.48L332.15 1.48Q332.08 1.48 332.08 1.26Q332.08 1.04 332.15 1.04L332.15 1.04Q332.87 1.04 333.61 1.10Q334.34 1.15 335.24 1.15L335.24 1.15Q336.07 1.15 336.90 1.10Q337.73 1.04 338.41 1.04L338.41 1.04Q338.52 1.04 338.52 1.26Q338.52 1.48 338.41 1.48L338.41 1.48Q336.86 1.48 336.23 2.23Q335.60 2.99 335.60 4.82L335.60 4.82L335.60 23.94Q335.60 24.01 335.42 24.03Q335.24 24.05 335.17 24.01L335.17 24.01L318.90 4.00Q318.58 3.60 318.29 3.31L318.29 3.31L318.29 19.80Q318.29 21.64 318.90 22.37Q319.51 23.11 321.02 23.11L321.02 23.11Q321.13 23.11 321.13 23.33Q321.13 23.54 321.02 23.54L321.02 23.54Q320.34 23.54 319.60 23.51Q318.86 23.47 317.96 23.47L317.96 23.47Q317.10 23.47 316.31 23.51Q315.52 23.54 314.80 23.54L314.80 23.54Q314.72 23.54 314.72 23.33Q314.72 23.11 314.80 23.11L314.80 23.11Q316.38 23.11 316.94 22.37Q317.50 21.64 317.50 19.80ZM374.47 1.04L374.47 1.04Q374.58 1.04 374.58 1.26Q374.58 1.48 374.47 1.48L374.47 1.48Q373.35 1.48 372.51 1.94Q371.66 2.41 371.01 3.96L371.01 3.96L363.09 23.51Q363.06 23.65 362.71 23.65Q362.37 23.65 362.30 23.51L362.30 23.51L353.41 4.03Q352.80 2.63 352.11 2.05Q351.43 1.48 350.28 1.48L350.28 1.48Q350.17 1.48 350.17 1.26Q350.17 1.04 350.28 1.04L350.28 1.04Q350.78 1.04 351.30 1.08Q351.82 1.12 352.35 1.13Q352.87 1.15 353.34 1.15L353.34 1.15Q354.20 1.15 354.92 1.13Q355.64 1.12 356.23 1.08Q356.83 1.04 357.37 1.04L357.37 1.04Q357.48 1.04 357.48 1.26Q357.48 1.48 357.37 1.48L357.37 1.48Q356.00 1.48 355.42 1.93Q354.85 2.38 355.46 3.67L355.46 3.67L363.31 20.99L370.26 3.74Q370.76 2.48 370.22 1.98Q369.68 1.48 367.66 1.48L367.66 1.48Q367.56 1.48 367.56 1.26Q367.56 1.04 367.66 1.04L367.66 1.04Q368.49 1.04 369.27 1.10Q370.04 1.15 371.26 1.15L371.26 1.15Q372.31 1.15 372.94 1.10Q373.57 1.04 374.47 1.04ZM392.27 4.03L392.27 20.63Q392.27 21.67 392.49 22.21Q392.70 22.75 393.41 22.93Q394.11 23.11 395.48 23.11L395.48 23.11Q395.55 23.11 395.55 23.33Q395.55 23.54 395.48 23.54L395.48 23.54Q394.61 23.54 393.57 23.51Q392.52 23.47 391.26 23.47L391.26 23.47Q390.08 23.47 389.01 23.51Q387.95 23.54 387.09 23.54L387.09 23.54Q386.98 23.54 386.98 23.33Q386.98 23.11 387.09 23.11L387.09 23.11Q388.46 23.11 389.16 22.93Q389.86 22.75 390.09 22.21Q390.33 21.67 390.33 20.63L390.33 20.63L390.33 3.96Q390.33 2.92 390.09 2.39Q389.86 1.87 389.16 1.67Q388.46 1.48 387.09 1.48L387.09 1.48Q386.98 1.48 386.98 1.26Q386.98 1.04 387.09 1.04L387.09 1.04Q387.95 1.04 389.01 1.10Q390.08 1.15 391.26 1.15L391.26 1.15Q392.52 1.15 393.59 1.10Q394.65 1.04 395.48 1.04L395.48 1.04Q395.55 1.04 395.55 1.26Q395.55 1.48 395.48 1.48L395.48 1.48Q394.11 1.48 393.42 1.69Q392.74 1.91 392.51 2.45Q392.27 2.99 392.27 4.03L392.27 4.03ZM414.65 4.00L414.65 4.00L414.65 20.48Q414.65 21.49 414.88 22.00Q415.12 22.50 415.78 22.68Q416.45 22.86 417.74 22.86L417.74 22.86L422.35 22.86Q424.26 22.86 425.27 21.60Q426.28 20.34 426.56 18.29L426.56 18.29Q426.56 18.25 426.56 18.25L426.56 18.25Q426.60 18.18 426.78 18.18L426.78 18.18Q426.96 18.22 426.96 18.32L426.96 18.32Q426.85 19.26 426.74 20.57Q426.64 21.89 426.64 23.00L426.64 23.00Q426.64 23.54 426.10 23.54L426.10 23.54L409.54 23.54Q409.46 23.54 409.46 23.33Q409.46 23.11 409.54 23.11L409.54 23.11Q410.90 23.11 411.59 22.93Q412.27 22.75 412.51 22.21Q412.74 21.67 412.74 20.63L412.74 20.63L412.74 3.96Q412.74 2.92 412.51 2.39Q412.27 1.87 411.59 1.67Q410.90 1.48 409.54 1.48L409.54 1.48Q409.46 1.48 409.46 1.26Q409.46 1.04 409.54 1.04L409.54 1.04Q410.40 1.04 411.46 1.10Q412.52 1.15 413.68 1.15L413.68 1.15Q414.90 1.15 415.96 1.10Q417.02 1.04 417.85 1.04L417.85 1.04Q417.92 1.04 417.92 1.26Q417.92 1.48 417.85 1.48L417.85 1.48Q416.48 1.48 415.80 1.67Q415.12 1.87 414.88 2.41Q414.65 2.95 414.65 4.00ZM444.73 4.00L444.73 4.00L444.73 20.48Q444.73 21.49 444.96 22.00Q445.20 22.50 445.86 22.68Q446.53 22.86 447.82 22.86L447.82 22.86L452.43 22.86Q454.34 22.86 455.35 21.60Q456.36 20.34 456.64 18.29L456.64 18.29Q456.64 18.25 456.64 18.25L456.64 18.25Q456.68 18.18 456.86 18.18L456.86 18.18Q457.04 18.22 457.04 18.32L457.04 18.32Q456.93 19.26 456.82 20.57Q456.72 21.89 456.72 23.00L456.72 23.00Q456.72 23.54 456.18 23.54L456.18 23.54L439.62 23.54Q439.54 23.54 439.54 23.33Q439.54 23.11 439.62 23.11L439.62 23.11Q440.98 23.11 441.67 22.93Q442.35 22.75 442.59 22.21Q442.82 21.67 442.82 20.63L442.82 20.63L442.82 3.96Q442.82 2.92 442.59 2.39Q442.35 1.87 441.67 1.67Q440.98 1.48 439.62 1.48L439.62 1.48Q439.54 1.48 439.54 1.26Q439.54 1.04 439.62 1.04L439.62 1.04Q440.48 1.04 441.54 1.10Q442.60 1.15 443.76 1.15L443.76 1.15Q444.98 1.15 446.04 1.10Q447.10 1.04 447.93 1.04L447.93 1.04Q448.00 1.04 448.00 1.26Q448.00 1.48 447.93 1.48L447.93 1.48Q446.56 1.48 445.88 1.67Q445.20 1.87 444.96 2.41Q444.73 2.95 444.73 4.00ZM493.38 23.11L493.38 23.11Q493.53 23.11 493.53 23.33Q493.53 23.54 493.38 23.54L493.38 23.54Q492.38 23.54 491.31 23.47Q490.25 23.40 489.28 23.40L489.28 23.40Q488.16 23.40 487.35 23.47Q486.54 23.54 485.57 23.54L485.57 23.54Q485.43 23.54 485.43 23.33Q485.43 23.11 485.57 23.11L485.57 23.11Q487.59 23.11 488.11 22.57Q488.63 22.03 487.95 20.52L487.95 20.52L484.56 13.21L476.00 13.21L473.55 19.12Q472.65 21.31 473.40 22.21Q474.16 23.11 476.61 23.11L476.61 23.11Q476.79 23.11 476.79 23.33Q476.79 23.54 476.61 23.54L476.61 23.54Q475.53 23.54 474.63 23.47Q473.73 23.40 472.36 23.40L472.36 23.40Q471.10 23.40 470.33 23.47Q469.55 23.54 468.47 23.54L468.47 23.54Q468.33 23.54 468.33 23.33Q468.33 23.11 468.47 23.11L468.47 23.11Q469.44 23.11 470.16 22.75Q470.88 22.39 471.51 21.46Q472.14 20.52 472.86 18.79L472.86 18.79L480.39 0.68Q480.46 0.58 480.62 0.58Q480.78 0.58 480.82 0.68L480.82 0.68L489.17 18.61Q490.00 20.41 490.65 21.40Q491.30 22.39 491.94 22.75Q492.59 23.11 493.38 23.11ZM476.28 12.56L484.24 12.56L480.03 3.53L476.28 12.56Z" fill="#1A1A2E"/>
  <path d="M17.73 65.78L17.73 65.78Q20.07 65.99 21.94 66.87L21.94 66.87Q24.34 68.02 25.66 69.99Q26.99 71.97 26.99 74.57L26.99 74.57Q26.99 77.32 25.56 79.53Q24.13 81.74 21.66 83.02Q19.19 84.29 16.12 84.29L16.12 84.29Q14.56 84.29 12.43 84.14Q10.30 83.98 8.53 83.98Q6.76 83.98 5.15 84.03Q3.54 84.08 2.24 84.08L2.24 84.08Q2.08 84.08 2.08 83.77Q2.08 83.46 2.24 83.46L2.24 83.46Q3.95 83.46 4.89 83.20Q5.82 82.94 6.16 82.16Q6.50 81.38 6.50 79.87L6.50 79.87L6.50 55.80Q6.50 54.29 6.19 53.53Q5.88 52.78 4.97 52.49Q4.06 52.21 2.29 52.21L2.29 52.21Q2.18 52.21 2.18 51.90Q2.18 51.58 2.29 51.58L2.29 51.58Q3.59 51.58 5.17 51.66Q6.76 51.74 8.53 51.74L8.53 51.74Q9.93 51.74 11.65 51.58Q13.36 51.43 14.72 51.43L14.72 51.43Q17.84 51.43 19.84 52.29Q21.84 53.14 22.83 54.68Q23.82 56.21 23.82 58.24L23.82 58.24Q23.82 61.15 21.63 63.34L21.63 63.34Q20.07 64.90 17.73 65.78ZM15.29 83.25L15.29 83.25Q19.08 83.25 20.83 81.30Q22.57 79.35 22.57 75.82L22.57 75.82Q22.57 71.97 20.44 69.50Q18.30 67.03 14.20 67.03L14.20 67.03Q13.16 66.98 11.80 67.03L11.80 67.03Q11.23 67.03 10.61 67.08L10.61 67.08L10.61 79.87Q10.61 81.07 10.95 81.82Q11.28 82.58 12.30 82.91Q13.31 83.25 15.29 83.25ZM13.73 52.31L13.73 52.31Q12.58 52.31 11.88 52.55Q11.18 52.78 10.89 53.53Q10.61 54.29 10.61 55.90L10.61 55.90L10.61 65.78Q11.18 65.78 11.65 65.78L11.65 65.78Q12.74 65.83 12.90 65.83L12.90 65.83Q16.54 65.83 18.15 63.75Q19.76 61.67 19.76 58.66L19.76 58.66Q19.76 56.78 19.11 55.35Q18.46 53.92 17.16 53.12Q15.86 52.31 13.73 52.31ZM74.25 83.46L74.25 83.46Q74.51 83.46 74.51 83.77Q74.51 84.08 74.25 84.08L74.25 84.08Q72.74 84.08 71.15 83.98Q69.57 83.88 68.06 83.88L68.06 83.88Q66.40 83.88 65.17 83.98Q63.95 84.08 62.44 84.08L62.44 84.08Q62.24 84.08 62.24 83.77Q62.24 83.46 62.44 83.46L62.44 83.46Q64.99 83.46 65.56 82.65Q66.14 81.85 64.99 79.46L64.99 79.46L60.68 70.51L48.25 70.51L45.34 77.22Q43.98 80.39 45.18 81.93Q46.38 83.46 49.65 83.46L49.65 83.46Q49.91 83.46 49.91 83.77Q49.91 84.08 49.65 84.08L49.65 84.08Q48.09 84.08 46.79 83.98Q45.49 83.88 43.52 83.88L43.52 83.88Q41.59 83.88 40.42 83.98Q39.25 84.08 37.59 84.08L37.59 84.08Q37.38 84.08 37.38 83.77Q37.38 83.46 37.59 83.46L37.59 83.46Q38.99 83.46 40.03 82.91Q41.07 82.37 42.03 80.91Q43.00 79.46 44.14 76.75L44.14 76.75L55.22 51.22Q55.27 51.06 55.58 51.04Q55.89 51.01 55.94 51.22L55.94 51.22L68.42 76.96Q69.67 79.51 70.58 80.94Q71.49 82.37 72.38 82.91Q73.26 83.46 74.25 83.46ZM48.72 69.37L60.16 69.37L54.12 56.84L48.72 69.37ZM112.10 72.33L112.10 57.56Q112.10 54.96 110.93 53.59Q109.76 52.21 107.47 52.21L107.47 52.21Q107.31 52.21 107.31 51.90Q107.31 51.58 107.47 51.58L107.47 51.58Q108.66 51.58 109.96 51.66Q111.26 51.74 112.77 51.74L112.77 51.74Q114.07 51.74 115.35 51.66Q116.62 51.58 117.71 51.58L117.71 51.58Q117.82 51.58 117.82 51.90Q117.82 52.21 117.71 52.21L117.71 52.21Q115.63 52.21 114.57 53.59Q113.50 54.96 113.50 57.56L113.50 57.56L113.50 72.28Q113.50 76.18 111.94 78.99Q110.38 81.80 107.57 83.28Q104.76 84.76 101.02 84.76L101.02 84.76Q97.17 84.76 94.26 83.28Q91.35 81.80 89.74 79.04Q88.12 76.28 88.12 72.49L88.12 72.49L88.12 55.80Q88.12 54.29 87.81 53.53Q87.50 52.78 86.59 52.49Q85.68 52.21 83.91 52.21L83.91 52.21Q83.76 52.21 83.76 51.90Q83.76 51.58 83.91 51.58L83.91 51.58Q85.21 51.58 86.77 51.66Q88.33 51.74 90.15 51.74L90.15 51.74Q92.02 51.74 93.61 51.66Q95.20 51.58 96.39 51.58L96.39 51.58Q96.55 51.58 96.55 51.90Q96.55 52.21 96.39 52.21L96.39 52.21Q94.62 52.21 93.71 52.52Q92.80 52.83 92.52 53.61Q92.23 54.39 92.23 55.90L92.23 55.90L92.23 70.67Q92.23 76.91 94.94 80.00Q97.64 83.10 102.42 83.10L102.42 83.10Q107 83.10 109.55 80.26Q112.10 77.43 112.10 72.33L112.10 72.33ZM134.76 57.41L134.76 57.41Q134.76 59.49 135.80 61.00Q136.84 62.50 138.50 63.67Q140.17 64.84 142.04 65.99L142.04 65.99Q143.96 67.13 145.76 68.43Q147.55 69.73 148.72 71.47Q149.89 73.22 149.89 75.71L149.89 75.71Q149.89 78.26 148.57 80.29Q147.24 82.32 144.82 83.51Q142.40 84.71 139.02 84.71L139.02 84.71Q137.67 84.71 136.29 84.47Q134.92 84.24 133.67 83.82Q132.42 83.41 131.38 82.78L131.38 82.78Q131.17 82.63 131.04 82.42Q130.91 82.21 130.91 81.80L130.91 81.80L130.39 74.36Q130.39 74.26 130.39 74.15L130.39 74.15Q130.50 74.10 130.65 74.05L130.65 74.05Q130.91 74.05 130.96 74.26L130.96 74.26Q131.43 75.87 132.21 77.53Q132.99 79.20 134.08 80.57Q135.18 81.95 136.71 82.84Q138.24 83.72 140.27 83.72L140.27 83.72Q141.68 83.72 143.00 83.20Q144.33 82.68 145.16 81.46Q145.99 80.24 145.99 78.05L145.99 78.05Q145.99 75.56 144.90 73.84Q143.81 72.12 142.09 70.88Q140.38 69.63 138.45 68.48L138.45 68.48Q136.63 67.34 134.94 66.09Q133.25 64.84 132.21 63.21Q131.17 61.57 131.17 59.23L131.17 59.23Q131.17 56.42 132.65 54.60Q134.14 52.78 136.45 51.90Q138.76 51.01 141.21 51.01L141.21 51.01Q142.82 51.01 144.48 51.32Q146.15 51.64 147.50 52.21L147.50 52.21Q147.97 52.42 148.12 52.65Q148.28 52.88 148.28 53.14L148.28 53.14L148.54 59.64Q148.54 59.80 148.28 59.85Q148.02 59.90 147.92 59.70L147.92 59.70Q147.76 58.81 147.24 57.49Q146.72 56.16 145.84 54.89Q144.95 53.61 143.57 52.75Q142.20 51.90 140.22 51.90L140.22 51.90Q138.40 51.90 137.20 52.65Q136.01 53.40 135.38 54.63Q134.76 55.85 134.76 57.41ZM185.09 84.08L185.09 84.08L162.94 84.08Q162.78 84.08 162.78 83.77Q162.78 83.46 162.94 83.46L162.94 83.46Q164.70 83.46 165.61 83.20Q166.52 82.94 166.84 82.16Q167.15 81.38 167.15 79.87L167.15 79.87L167.15 55.80Q167.15 54.29 166.84 53.53Q166.52 52.78 165.61 52.49Q164.70 52.21 162.94 52.21L162.94 52.21Q162.78 52.21 162.78 51.90Q162.78 51.58 162.94 51.58L162.94 51.58L184.15 51.58Q184.67 51.58 184.67 52.05L184.67 52.05L184.78 58.60Q184.78 58.76 184.49 58.79Q184.20 58.81 184.15 58.66L184.15 58.66Q183.79 55.80 182.12 54.31Q180.46 52.83 177.76 52.83L177.76 52.83L175.10 52.83Q173.54 52.83 172.71 53.09Q171.88 53.35 171.57 54.05Q171.26 54.76 171.26 56.00L171.26 56.00L171.26 66.56L176.98 66.56Q179.63 66.56 180.88 65.65Q182.12 64.74 182.12 62.82L182.12 62.82Q182.12 62.71 182.41 62.71Q182.70 62.71 182.70 62.82L182.70 62.82Q182.70 64.43 182.67 65.31Q182.64 66.20 182.64 67.18L182.64 67.18Q182.64 68.38 182.72 69.58Q182.80 70.77 182.80 72.12L182.80 72.12Q182.80 72.23 182.49 72.23Q182.18 72.23 182.18 72.12L182.18 72.12Q182.18 69.89 180.90 68.82Q179.63 67.76 176.82 67.76L176.82 67.76L171.26 67.76L171.26 79.66Q171.26 80.91 171.54 81.61Q171.83 82.32 172.61 82.60Q173.39 82.89 174.79 82.89L174.79 82.89L178.22 82.89Q181.19 82.89 183.11 81.15Q185.04 79.40 185.76 76.18L185.76 76.18Q185.76 76.13 185.76 76.13L185.76 76.13Q185.82 76.02 186.08 76.08L186.08 76.08Q186.39 76.13 186.39 76.28L186.39 76.28Q186.18 77.69 186.02 79.66Q185.87 81.64 185.87 83.30L185.87 83.30Q185.87 84.08 185.09 84.08ZM245.19 51.58L245.19 51.58Q245.35 51.58 245.35 51.90Q245.35 52.21 245.19 52.21L245.19 52.21Q243.42 52.21 241.99 53.33Q240.56 54.44 239.58 56.94L239.58 56.94L228.97 84.03Q228.92 84.24 228.42 84.24Q227.93 84.24 227.82 84.03L227.82 84.03L221.06 69.47L215.40 84.03Q215.34 84.24 214.85 84.24Q214.36 84.24 214.25 84.03L214.25 84.03L201.20 55.90Q200.58 54.44 199.98 53.66Q199.38 52.88 198.68 52.55Q197.98 52.21 196.94 52.21L196.94 52.21Q196.78 52.21 196.78 51.90Q196.78 51.58 196.94 51.58L196.94 51.58Q197.61 51.58 198.18 51.64Q198.76 51.69 199.43 51.71Q200.11 51.74 201.10 51.74L201.10 51.74Q202.81 51.74 204.01 51.71Q205.20 51.69 206.09 51.64Q206.97 51.58 207.70 51.58L207.70 51.58Q207.86 51.58 207.86 51.90Q207.86 52.21 207.70 52.21L207.70 52.21Q205.62 52.21 205.07 52.96Q204.53 53.72 205.57 56.06L205.57 56.06L216.12 78.62L220.34 67.91L214.77 55.90Q213.94 54.03 213.03 53.12Q212.12 52.21 210.77 52.21L210.77 52.21Q210.61 52.21 210.61 51.90Q210.61 51.58 210.77 51.58L210.77 51.58Q211.44 51.58 211.99 51.64Q212.54 51.69 213.16 51.71Q213.78 51.74 214.67 51.74L214.67 51.74Q216.75 51.74 217.81 51.66Q218.88 51.58 219.71 51.58L219.71 51.58Q219.87 51.58 219.87 51.90Q219.87 52.21 219.71 52.21L219.71 52.21Q218.15 52.21 218.07 52.88Q218.00 53.56 219.14 56.06L219.14 56.06L222.47 63.18L225.02 56.68Q225.95 54.34 225.69 53.27Q225.43 52.21 223.82 52.21L223.82 52.21Q223.72 52.21 223.72 51.90Q223.72 51.58 223.82 51.58L223.82 51.58Q224.39 51.58 224.73 51.64Q225.07 51.69 225.59 51.71Q226.11 51.74 227.25 51.74L227.25 51.74Q228.60 51.74 229.49 51.66Q230.37 51.58 231.62 51.58L231.62 51.58Q231.72 51.58 231.72 51.90Q231.72 52.21 231.62 52.21L231.62 52.21Q229.90 52.21 228.60 53.25Q227.30 54.29 226.26 56.94L226.26 56.94L223.20 64.69L229.70 78.62L238.22 56.94Q239.11 54.65 238.35 53.43Q237.60 52.21 235.10 52.21L235.10 52.21Q234.95 52.21 234.95 51.90Q234.95 51.58 235.10 51.58L235.10 51.58Q236.35 51.58 237.55 51.66Q238.74 51.74 240.56 51.74L240.56 51.74Q242.07 51.74 242.98 51.66Q243.89 51.58 245.19 51.58ZM277.37 84.08L277.37 84.08L255.22 84.08Q255.06 84.08 255.06 83.77Q255.06 83.46 255.22 83.46L255.22 83.46Q256.99 83.46 257.90 83.20Q258.81 82.94 259.12 82.16Q259.43 81.38 259.43 79.87L259.43 79.87L259.43 55.80Q259.43 54.29 259.12 53.53Q258.81 52.78 257.90 52.49Q256.99 52.21 255.22 52.21L255.22 52.21Q255.06 52.21 255.06 51.90Q255.06 51.58 255.22 51.58L255.22 51.58L276.44 51.58Q276.96 51.58 276.96 52.05L276.96 52.05L277.06 58.60Q277.06 58.76 276.77 58.79Q276.49 58.81 276.44 58.66L276.44 58.66Q276.07 55.80 274.41 54.31Q272.74 52.83 270.04 52.83L270.04 52.83L267.39 52.83Q265.83 52.83 265.00 53.09Q264.16 53.35 263.85 54.05Q263.54 54.76 263.54 56.00L263.54 56.00L263.54 66.56L269.26 66.56Q271.91 66.56 273.16 65.65Q274.41 64.74 274.41 62.82L274.41 62.82Q274.41 62.71 274.69 62.71Q274.98 62.71 274.98 62.82L274.98 62.82Q274.98 64.43 274.95 65.31Q274.93 66.20 274.93 67.18L274.93 67.18Q274.93 68.38 275.01 69.58Q275.08 70.77 275.08 72.12L275.08 72.12Q275.08 72.23 274.77 72.23Q274.46 72.23 274.46 72.12L274.46 72.12Q274.46 69.89 273.19 68.82Q271.91 67.76 269.10 67.76L269.10 67.76L263.54 67.76L263.54 79.66Q263.54 80.91 263.83 81.61Q264.11 82.32 264.89 82.60Q265.67 82.89 267.08 82.89L267.08 82.89L270.51 82.89Q273.47 82.89 275.40 81.15Q277.32 79.40 278.05 76.18L278.05 76.18Q278.05 76.13 278.05 76.13L278.05 76.13Q278.10 76.02 278.36 76.08L278.36 76.08Q278.67 76.13 278.67 76.28L278.67 76.28Q278.46 77.69 278.31 79.66Q278.15 81.64 278.15 83.30L278.15 83.30Q278.15 84.08 277.37 84.08ZM299.98 55.90L299.98 79.87Q299.98 81.38 300.27 82.16Q300.56 82.94 301.47 83.20Q302.38 83.46 304.20 83.46L304.20 83.46Q304.30 83.46 304.30 83.77Q304.30 84.08 304.20 84.08L304.20 84.08Q302.90 84.08 301.31 84.03Q299.72 83.98 297.85 83.98L297.85 83.98Q296.03 83.98 294.42 84.03Q292.81 84.08 291.51 84.08L291.51 84.08Q291.40 84.08 291.40 83.77Q291.40 83.46 291.51 83.46L291.51 83.46Q293.33 83.46 294.26 83.20Q295.20 82.94 295.51 82.16Q295.82 81.38 295.82 79.87L295.82 79.87L295.82 55.80Q295.82 54.29 295.51 53.53Q295.20 52.78 294.26 52.49Q293.33 52.21 291.51 52.21L291.51 52.21Q291.40 52.21 291.40 51.90Q291.40 51.58 291.51 51.58L291.51 51.58Q292.81 51.58 294.42 51.66Q296.03 51.74 297.85 51.74L297.85 51.74Q299.72 51.74 301.34 51.66Q302.95 51.58 304.20 51.58L304.20 51.58Q304.30 51.58 304.30 51.90Q304.30 52.21 304.20 52.21L304.20 52.21Q302.38 52.21 301.49 52.52Q300.61 52.83 300.30 53.61Q299.98 54.39 299.98 55.90L299.98 55.90ZM320.93 78.16L320.93 78.16L320.93 54.50Q319.89 53.46 319.06 52.94L319.06 52.94Q317.71 52.21 316.41 52.21L316.41 52.21Q316.30 52.21 316.30 51.90Q316.30 51.58 316.41 51.58L316.41 51.58Q317.40 51.58 318.38 51.64Q319.37 51.69 320.20 51.69L320.20 51.69Q321.45 51.69 322.49 51.64Q323.53 51.58 324.05 51.58L324.05 51.58Q324.73 51.58 325.04 52.18Q325.35 52.78 326.55 54.29L326.55 54.29L345.94 77.69L345.94 57.56Q345.94 54.86 344.98 53.53Q344.02 52.21 341.89 52.21L341.89 52.21Q341.78 52.21 341.78 51.90Q341.78 51.58 341.89 51.58L341.89 51.58Q342.98 51.58 344.12 51.66Q345.27 51.74 346.62 51.74L346.62 51.74Q347.92 51.74 349.17 51.66Q350.42 51.58 351.51 51.58L351.51 51.58Q351.61 51.58 351.61 51.90Q351.61 52.21 351.51 52.21L351.51 52.21Q349.32 52.21 348.28 53.53Q347.24 54.86 347.24 57.56L347.24 57.56L347.24 84.76Q347.24 84.86 347.01 84.89Q346.78 84.92 346.67 84.86L346.67 84.86L322.28 55.95L322.28 78.16Q322.28 80.86 323.27 82.16Q324.26 83.46 326.39 83.46L326.39 83.46Q326.50 83.46 326.50 83.77Q326.50 84.08 326.39 84.08L326.39 84.08Q325.30 84.08 324.18 84.03Q323.06 83.98 321.66 83.98L321.66 83.98Q320.31 83.98 319.01 84.03Q317.71 84.08 316.56 84.08L316.56 84.08Q316.46 84.08 316.46 83.77Q316.46 83.46 316.56 83.46L316.56 83.46Q318.85 83.46 319.89 82.16Q320.93 80.86 320.93 78.16ZM397.16 83.46L397.16 83.46Q397.42 83.46 397.42 83.77Q397.42 84.08 397.16 84.08L397.16 84.08Q395.65 84.08 394.06 83.98Q392.48 83.88 390.97 83.88L390.97 83.88Q389.30 83.88 388.08 83.98Q386.86 84.08 385.35 84.08L385.35 84.08Q385.14 84.08 385.14 83.77Q385.14 83.46 385.35 83.46L385.35 83.46Q387.90 83.46 388.47 82.65Q389.04 81.85 387.90 79.46L387.90 79.46L383.58 70.51L371.16 70.51L368.24 77.22Q366.89 80.39 368.09 81.93Q369.28 83.46 372.56 83.46L372.56 83.46Q372.82 83.46 372.82 83.77Q372.82 84.08 372.56 84.08L372.56 84.08Q371 84.08 369.70 83.98Q368.40 83.88 366.42 83.88L366.42 83.88Q364.50 83.88 363.33 83.98Q362.16 84.08 360.50 84.08L360.50 84.08Q360.29 84.08 360.29 83.77Q360.29 83.46 360.50 83.46L360.50 83.46Q361.90 83.46 362.94 82.91Q363.98 82.37 364.94 80.91Q365.90 79.46 367.05 76.75L367.05 76.75L378.12 51.22Q378.18 51.06 378.49 51.04Q378.80 51.01 378.85 51.22L378.85 51.22L391.33 76.96Q392.58 79.51 393.49 80.94Q394.40 82.37 395.28 82.91Q396.17 83.46 397.16 83.46ZM371.62 69.37L383.06 69.37L377.03 56.84L371.62 69.37ZM415.35 55.85L415.35 55.85L415.35 79.66Q415.35 81.02 415.63 81.72Q415.92 82.42 416.73 82.65Q417.53 82.89 419.14 82.89L419.14 82.89L423.56 82.89Q426.94 82.89 429.08 80.91Q431.21 78.94 431.88 75.66L431.88 75.66Q431.88 75.61 431.88 75.61L431.88 75.61Q431.94 75.50 432.20 75.50L432.20 75.50Q432.46 75.56 432.46 75.71L432.46 75.71Q432.30 77.22 432.14 79.35Q431.99 81.48 431.99 83.30L431.99 83.30Q431.99 84.08 431.21 84.08L431.21 84.08L406.98 84.08Q406.87 84.08 406.87 83.77Q406.87 83.46 406.98 83.46L406.98 83.46Q408.80 83.46 409.71 83.20Q410.62 82.94 410.93 82.16Q411.24 81.38 411.24 79.87L411.24 79.87L411.24 55.80Q411.24 54.29 410.93 53.53Q410.62 52.78 409.71 52.49Q408.80 52.21 406.98 52.21L406.98 52.21Q406.87 52.21 406.87 51.90Q406.87 51.58 406.98 51.58L406.98 51.58Q408.22 51.58 409.86 51.66Q411.50 51.74 413.27 51.74L413.27 51.74Q415.14 51.74 416.73 51.66Q418.31 51.58 419.56 51.58L419.56 51.58Q419.66 51.58 419.66 51.90Q419.66 52.21 419.56 52.21L419.56 52.21Q417.74 52.21 416.86 52.49Q415.97 52.78 415.66 53.56Q415.35 54.34 415.35 55.85ZM451.27 55.85L451.27 55.85L451.27 79.66Q451.27 81.02 451.56 81.72Q451.84 82.42 452.65 82.65Q453.46 82.89 455.07 82.89L455.07 82.89L459.49 82.89Q462.87 82.89 465 80.91Q467.13 78.94 467.81 75.66L467.81 75.66Q467.81 75.61 467.81 75.61L467.81 75.61Q467.86 75.50 468.12 75.50L468.12 75.50Q468.38 75.56 468.38 75.71L468.38 75.71Q468.22 77.22 468.07 79.35Q467.91 81.48 467.91 83.30L467.91 83.30Q467.91 84.08 467.13 84.08L467.13 84.08L442.90 84.08Q442.80 84.08 442.80 83.77Q442.80 83.46 442.90 83.46L442.90 83.46Q444.72 83.46 445.63 83.20Q446.54 82.94 446.85 82.16Q447.16 81.38 447.16 79.87L447.16 79.87L447.16 55.80Q447.16 54.29 446.85 53.53Q446.54 52.78 445.63 52.49Q444.72 52.21 442.90 52.21L442.90 52.21Q442.80 52.21 442.80 51.90Q442.80 51.58 442.90 51.58L442.90 51.58Q444.15 51.58 445.79 51.66Q447.42 51.74 449.19 51.74L449.19 51.74Q451.06 51.74 452.65 51.66Q454.24 51.58 455.48 51.58L455.48 51.58Q455.59 51.58 455.59 51.90Q455.59 52.21 455.48 52.21L455.48 52.21Q453.66 52.21 452.78 52.49Q451.90 52.78 451.58 53.56Q451.27 54.34 451.27 55.85ZM501.50 84.08L501.50 84.08L479.34 84.08Q479.19 84.08 479.19 83.77Q479.19 83.46 479.34 83.46L479.34 83.46Q481.11 83.46 482.02 83.20Q482.93 82.94 483.24 82.16Q483.56 81.38 483.56 79.87L483.56 79.87L483.56 55.80Q483.56 54.29 483.24 53.53Q482.93 52.78 482.02 52.49Q481.11 52.21 479.34 52.21L479.34 52.21Q479.19 52.21 479.19 51.90Q479.19 51.58 479.34 51.58L479.34 51.58L500.56 51.58Q501.08 51.58 501.08 52.05L501.08 52.05L501.18 58.60Q501.18 58.76 500.90 58.79Q500.61 58.81 500.56 58.66L500.56 58.66Q500.20 55.80 498.53 54.31Q496.87 52.83 494.16 52.83L494.16 52.83L491.51 52.83Q489.95 52.83 489.12 53.09Q488.29 53.35 487.98 54.05Q487.66 54.76 487.66 56.00L487.66 56.00L487.66 66.56L493.38 66.56Q496.04 66.56 497.28 65.65Q498.53 64.74 498.53 62.82L498.53 62.82Q498.53 62.71 498.82 62.71Q499.10 62.71 499.10 62.82L499.10 62.82Q499.10 64.43 499.08 65.31Q499.05 66.20 499.05 67.18L499.05 67.18Q499.05 68.38 499.13 69.58Q499.21 70.77 499.21 72.12L499.21 72.12Q499.21 72.23 498.90 72.23Q498.58 72.23 498.58 72.12L498.58 72.12Q498.58 69.89 497.31 68.82Q496.04 67.76 493.23 67.76L493.23 67.76L487.66 67.76L487.66 79.66Q487.66 80.91 487.95 81.61Q488.24 82.32 489.02 82.60Q489.80 82.89 491.20 82.89L491.20 82.89L494.63 82.89Q497.60 82.89 499.52 81.15Q501.44 79.40 502.17 76.18L502.17 76.18Q502.17 76.13 502.17 76.13L502.17 76.13Q502.22 76.02 502.48 76.08L502.48 76.08Q502.80 76.13 502.80 76.28L502.80 76.28Q502.59 77.69 502.43 79.66Q502.28 81.64 502.28 83.30L502.28 83.30Q502.28 84.08 501.50 84.08ZM537.68 84.08L537.68 84.08L515.53 84.08Q515.37 84.08 515.37 83.77Q515.37 83.46 515.53 83.46L515.53 83.46Q517.30 83.46 518.21 83.20Q519.12 82.94 519.43 82.16Q519.74 81.38 519.74 79.87L519.74 79.87L519.74 55.80Q519.74 54.29 519.43 53.53Q519.12 52.78 518.21 52.49Q517.30 52.21 515.53 52.21L515.53 52.21Q515.37 52.21 515.37 51.90Q515.37 51.58 515.53 51.58L515.53 51.58L536.74 51.58Q537.26 51.58 537.26 52.05L537.26 52.05L537.37 58.60Q537.37 58.76 537.08 58.79Q536.80 58.81 536.74 58.66L536.74 58.66Q536.38 55.80 534.72 54.31Q533.05 52.83 530.35 52.83L530.35 52.83L527.70 52.83Q526.14 52.83 525.30 53.09Q524.47 53.35 524.16 54.05Q523.85 54.76 523.85 56.00L523.85 56.00L523.85 66.56L529.57 66.56Q532.22 66.56 533.47 65.65Q534.72 64.74 534.72 62.82L534.72 62.82Q534.72 62.71 535.00 62.71Q535.29 62.71 535.29 62.82L535.29 62.82Q535.29 64.43 535.26 65.31Q535.24 66.20 535.24 67.18L535.24 67.18Q535.24 68.38 535.31 69.58Q535.39 70.77 535.39 72.12L535.39 72.12Q535.39 72.23 535.08 72.23Q534.77 72.23 534.77 72.12L534.77 72.12Q534.77 69.89 533.49 68.82Q532.22 67.76 529.41 67.76L529.41 67.76L523.85 67.76L523.85 79.66Q523.85 80.91 524.13 81.61Q524.42 82.32 525.20 82.60Q525.98 82.89 527.38 82.89L527.38 82.89L530.82 82.89Q533.78 82.89 535.70 81.15Q537.63 79.40 538.36 76.18L538.36 76.18Q538.36 76.13 538.36 76.13L538.36 76.13Q538.41 76.02 538.67 76.08L538.67 76.08Q538.98 76.13 538.98 76.28L538.98 76.28Q538.77 77.69 538.62 79.66Q538.46 81.64 538.46 83.30L538.46 83.30Q538.46 84.08 537.68 84.08Z" fill="#1A1A2E"/>
</svg>